STARTFONT 2.1
COMMENT $XFree86$
COMMENT  
COMMENT  Copyright 1989 by Sun Microsystems, Inc. Mountain View, CA. 
COMMENT  
COMMENT  Permission to use, copy, modify, and distribute this software and 
COMMENT  its documentation for any purpose and without fee is hereby granted, 
COMMENT  provided that the above copyright notices appear in all copies and 
COMMENT  that both those copyright notices and this permission notice appear 
COMMENT  in supporting documentation, and that the name of Sun Microsystems 
COMMENT  not be used in advertising or publicity pertaining to distribution 
COMMENT  of the software without specific, written prior permission.  Sun 
COMMENT  Microsystems make no representations about the suitability of this 
COMMENT  software for any purpose.  It is provided "as is" without express or 
COMMENT  implied warranty. 
COMMENT  
COMMENT  SUN MICROSYSTEMS DISCLAIM ALL WARRANTIES WITH REGARD TO THIS 
COMMENT  SOFTWARE, INCLUDING ALL IMPLIED WARRANTIES OF MERCHANTABILITY AND 
COMMENT  FITNESS, IN NO EVENT SHALL SUN MICROSYSTEMS BE LIABLE FOR ANY 
COMMENT  SPECIAL, INDIRECT OR CONSEQUENTIAL DAMAGES OR ANY DAMAGES WHATSOEVER 
COMMENT  RESULTING FROM LOSS OF USE, DATA OR PROFITS, WHETHER IN AN ACTION OF 
COMMENT  CONTRACT, NEGLIGENCE OR OTHER TORTIOUS ACTION, ARISING OUT OF OR IN 
COMMENT  CONNECTION WITH THE USE OR PERFORMANCE OF THIS SOFTWARE. 
COMMENT  
COMMENT  ** Open Look Cursor Font ** 
FONT -Sun-OPEN LOOK cursor-----12-120-75-75-P-160-SunOLcursor-1
SIZE 12 78 78
FONTBOUNDINGBOX 18 29 0 -17
STARTPROPERTIES 19
FONTNAME_REGISTRY ""
FAMILY_NAME "OPEN LOOK cursor"
FOUNDRY "Sun"
WEIGHT_NAME ""
SETWIDTH_NAME ""
SLANT ""
ADD_STYLE_NAME ""
PIXEL_SIZE 12
POINT_SIZE 120
RESOLUTION_X 75
RESOLUTION_Y 75
SPACING "P"
AVERAGE_WIDTH 160
CHARSET_REGISTRY "SunOLcursor"
CHARSET_ENCODING "1"
FACE_NAME "OLCursor"
FONT_ASCENT 12
FONT_DESCENT 17
DEFAULT_CHAR 32
ENDPROPERTIES
CHARS 26
STARTCHAR basic
ENCODING 0
SWIDTH 96 0
DWIDTH 16 0
BBX 16 16 0 -16
BITMAP
c000
f000
7c00
7f00
3fc0
3ff0
1ff0
1f80
0fc0
0ee0
0670
0638
001c
000e
0007
0003
ENDCHAR
STARTCHAR basic_m
ENCODING 1
SWIDTH 96 0
DWIDTH 16 0
BBX 18 18 -1 -17
BITMAP
600000
f80000
fe0000
7f8000
7fe000
3ff800
3ffc00
1ffc00
1ff800
0ff000
0ff800
07fc00
07be00
031f00
000f80
0007c0
0003c0
000180
ENDCHAR
STARTCHAR move
ENCODING 2
SWIDTH 96 0
DWIDTH 16 0
BBX 16 16 0 -16
BITMAP
c000
f000
7c00
7f00
3fc0
3fc0
1f00
1f80
0dff
0cff
00ff
00ff
00ff
00ff
00ff
00ff
ENDCHAR
STARTCHAR move_m
ENCODING 3
SWIDTH 96 0
DWIDTH 16 0
BBX 18 18 -1 -17
BITMAP
600000
f80000
fe0000
7f8000
7fe000
3ff000
3ff000
1fe000
1fff80
0fffc0
0fffc0
06ffc0
00ffc0
00ffc0
00ffc0
00ffc0
00ffc0
007f80
ENDCHAR
STARTCHAR copy
ENCODING 4
SWIDTH 96 0
DWIDTH 16 0
BBX 16 16 0 -16
BITMAP
c000
f000
7c00
7f00
3fc0
3fc0
1f00
1f80
0dfc
0cfc
00fd
00fd
00fd
00fd
0001
003f
ENDCHAR
STARTCHAR copy_m
ENCODING 5
SWIDTH 96 0
DWIDTH 16 0
BBX 18 18 -1 -17
BITMAP
600000
f80000
fe0000
7f8000
7fe000
3ff000
3ff000
1fe000
1ffe00
0fff00
0fff80
06ffc0
00ffc0
00ffc0
00ffc0
007fc0
003fc0
001f80
ENDCHAR
STARTCHAR busy
ENCODING 6
SWIDTH 96 0
DWIDTH 16 0
BBX 16 16 -7 -8
BITMAP
07c6
1ff7
383b
600c
600c
c006
c006
df06
c106
c106
610c
610c
3838
1ff0
07c0
0000
ENDCHAR
STARTCHAR busy_m
ENCODING 7
SWIDTH 42 0
DWIDTH 16 0
BBX 18 17 -8 -8
BITMAP
03e300
0fff80
1fffc0
3fffc0
7fff80
7fff00
ffff80
ffff80
ffff80
ffff80
ffff80
7fff00
7fff00
3ffe00
1ffc00
0ff800
03e000
ENDCHAR
STARTCHAR stop
ENCODING 8
SWIDTH 96 0
DWIDTH 16 0
BBX 9 16 0 -16
BITMAP
3e00
7f00
ff80
ff80
ff80
ff80
ff80
7f00
3e00
0800
0800
0800
0800
0800
0800
7f00
ENDCHAR
STARTCHAR stop_m
ENCODING 9
SWIDTH 96 0
DWIDTH 16 0
BBX 11 18 -1 -17
BITMAP
1f00
3f80
7fc0
ffe0
ffe0
ffe0
ffe0
ffe0
7fc0
3f80
1f00
0e00
0e00
0e00
0e00
3f80
7fc0
3f80
ENDCHAR
STARTCHAR panning
ENCODING 10
SWIDTH 96 0
DWIDTH 16 0
BBX 16 12 0 0
BITMAP
063f
067f
0ee0
0fc0
1f80
1ff0
3ff0
3fc0
7f00
7c00
f000
c000
ENDCHAR
STARTCHAR panning_m
ENCODING 11
SWIDTH 96 0
DWIDTH 16 0
BBX 18 14 -1 -1
BITMAP
031f80
07bfc0
07ffc0
0fff80
0ff000
1ff800
1ffc00
3ffc00
3ff800
7fe000
7f8000
fe0000
f80000
600000
ENDCHAR
STARTCHAR nouse
ENCODING 14
SWIDTH 96 0
DWIDTH 16 0
BBX 16 0 0 0
BITMAP
ENDCHAR
STARTCHAR nouse_m
ENCODING 15
SWIDTH 96 0
DWIDTH 16 0
BBX 16 0 0 0
BITMAP
ENDCHAR
STARTCHAR ptr
ENCODING 16
SWIDTH 96 0
DWIDTH 16 0
BBX 16 15 0 -15
BITMAP
0000
4000
6000
7000
7800
7c00
7e00
7800
4c00
0c00
0600
0600
0300
0300
0180
ENDCHAR
STARTCHAR ptr_m
ENCODING 17
SWIDTH 96 0
DWIDTH 16 0
BBX 16 16 0 -16
BITMAP
c000
e000
f000
f800
fc00
fe00
ff00
ff80
fe00
df00
9f00
0f80
0f80
07c0
07c0
03c0
ENDCHAR
STARTCHAR beye
ENCODING 18
SWIDTH 96 0
DWIDTH 16 0
BBX 16 15 -8 -8
BITMAP
0000
03c0
0c30
1008
2004
2004
4002
4182
4182
4002
2004
2004
1008
0c30
03c0
ENDCHAR
STARTCHAR beye_m
ENCODING 19
SWIDTH 96 0
DWIDTH 16 0
BBX 16 16 -8 -9
BITMAP
03c0
0c30
13c8
2c34
500a
500a
a185
a245
a245
a185
500a
500a
2c34
13c8
0c30
03c0
ENDCHAR
STARTCHAR rtarr
ENCODING 20
SWIDTH 96 0
DWIDTH 16 0
BBX 16 12 -17 -6
BITMAP
0000
0020
0030
0038
003c
7ffe
7fff
7ffe
003c
0038
0030
0020
ENDCHAR
STARTCHAR rtarr_m
ENCODING 21
SWIDTH 96 0
DWIDTH 16 0
BBX 16 13 -17 -7
BITMAP
0060
0050
0048
0044
ffc2
8001
8000
8001
ffc2
0044
0048
0050
0060
ENDCHAR
STARTCHAR xhair
ENCODING 22
SWIDTH 96 0
DWIDTH 16 0
BBX 16 15 -8 -8
BITMAP
0000
0180
0180
0180
0180
0180
0180
7e7e
7e7e
0180
0180
0180
0180
0180
0180
ENDCHAR
STARTCHAR xhair_m
ENCODING 23
SWIDTH 96 0
DWIDTH 16 0
BBX 16 16 -8 -9
BITMAP
03c0
0240
0240
0240
0240
0240
fe7f
8001
8001
fe7f
0240
0240
0240
0240
0240
03c0
ENDCHAR
STARTCHAR xcurs
ENCODING 24
SWIDTH 96 0
DWIDTH 16 0
BBX 16 15 -8 -7
BITMAP
0000
0000
600c
701c
3838
1c70
0ee0
07c0
0280
07c0
0ee0
1c70
3838
701c
600c
ENDCHAR
STARTCHAR xcurs_m
ENCODING 25
SWIDTH 96 0
DWIDTH 16 0
BBX 16 16 -8 -8
BITMAP
0000
600c
9012
8822
4444
2288
1110
0820
0440
0820
1110
2288
4444
8822
9012
600c
ENDCHAR
STARTCHAR hourg
ENCODING 26
SWIDTH 96 0
DWIDTH 16 0
BBX 16 16 -8 -8
BITMAP
7ffe
4002
200c
1a38
0ff0
07e0
03c0
0180
0180
0240
0520
0810
1108
23c4
47e2
7ffe
ENDCHAR
STARTCHAR hourg_m
ENCODING 27
SWIDTH 96 0
DWIDTH 16 0
BBX 16 15 -8 -7
BITMAP
0000
3ffc
1ff0
05c0
0000
0000
0000
0000
0000
0180
02c0
07e0
0ef0
1c38
381c
ENDCHAR
ENDFONT
